<svg width="16" height="24" viewBox="0 0 16 24" fill="none" xmlns="http://www.w3.org/2000/svg">
<path fill-rule="evenodd" clip-rule="evenodd" d="M13.514 19.601C12.3414 20.622 10.8351 21.178 8.91431 21.2791V23.2908H7.14518V21.2387C4.58752 21.0061 2.27249 19.9649 0.260742 18.2059L2.30282 15.7796C3.85965 17.1343 5.46703 17.943 7.14518 18.2059V12.7873C5.03233 12.2717 3.49572 11.6146 2.4949 10.8059C1.53451 9.987 1.05938 8.75367 1.05938 7.16651C1.05938 5.54902 1.60528 4.23481 2.7173 3.20366C3.85965 2.19273 5.33561 1.62661 7.14518 1.53563V0.130432H8.91431V1.55584C10.9665 1.71759 12.8974 2.41514 14.717 3.65858L12.9075 6.23645C11.6843 5.35694 10.3498 4.80093 8.91431 4.60886V9.85558H9.00529C11.1384 10.3712 12.7255 11.0485 13.7364 11.9078C14.717 12.757 15.2225 13.9903 15.2225 15.6179C15.2225 17.2354 14.6564 18.59 13.514 19.601Z" fill="white"/>
</svg>
