<svg width="21" height="32" viewBox="0 0 21 32" fill="none" xmlns="http://www.w3.org/2000/svg">
<path fill-rule="evenodd" clip-rule="evenodd" d="M17.9245 26.3331C16.3385 27.714 14.3013 28.466 11.7036 28.6027V31.3235H9.31091V28.548C5.85179 28.2335 2.72081 26.8253 0 24.4463L2.76183 21.1649C4.86738 22.997 7.04129 24.0908 9.31091 24.4463V17.1179C6.45338 16.4206 4.37517 15.5319 3.0216 14.4381C1.72272 13.3306 1.08012 11.6626 1.08012 9.516C1.08012 7.32842 1.81843 5.551 3.3224 4.15641C4.86738 2.78917 6.86355 2.02352 9.31091 1.90047V0H11.7036V1.92781C14.4791 2.14657 17.0905 3.08997 19.5515 4.77167L17.1042 8.25814C15.4498 7.06864 13.6451 6.31666 11.7036 6.05688V13.1529H11.8266C14.7115 13.8502 16.8581 14.7662 18.2253 15.9284C19.5515 17.0768 20.2352 18.7449 20.2352 20.9461C20.2352 23.1337 19.4695 24.9658 17.9245 26.3331Z" fill="#263A95"/>
<path d="M5.68994 9.9469C5.68994 10.7809 5.93604 11.4782 6.42825 11.9567C6.9478 12.449 7.91854 12.9275 9.3268 13.3787V6.84326C8.19199 6.9253 7.30328 7.28078 6.64701 7.85502C6.01808 8.40192 5.68994 9.09921 5.68994 9.9469Z" fill="white"/>
<path d="M11.7195 18.6699V25.4651C12.95 25.3284 13.8934 24.9866 14.6044 24.385C15.288 23.8381 15.6435 23.0861 15.6435 22.1974C15.6435 21.336 15.3837 20.6251 14.8094 20.1192C14.2762 19.5723 13.2371 19.1074 11.7195 18.6699Z" fill="white"/>
</svg>
