<svg width="161" height="161" viewBox="0 0 161 161" fill="none" xmlns="http://www.w3.org/2000/svg">
<path d="M81.1389 161C123.128 161 157.167 126.961 157.167 84.9721C157.167 42.9831 123.128 8.94434 81.1389 8.94434C39.1499 8.94434 5.11108 42.9831 5.11108 84.9721C5.11108 126.961 39.1499 161 81.1389 161Z" fill="white"/>
<path d="M103.413 58.2435C103.413 45.9617 93.4207 35.9697 81.1389 35.9697C68.8572 35.9697 58.8652 45.9617 58.8652 58.2435C58.8652 70.5252 68.8572 80.5173 81.1389 80.5173C93.4207 80.5173 103.413 70.5252 103.413 58.2435ZM81.1389 80.5173C59.0318 80.5173 41.0461 98.5029 41.0461 120.61V124.785C41.0461 126.051 41.5849 127.258 42.5281 128.103C53.3793 137.826 67.0916 143.181 81.1389 143.181C95.1865 143.181 108.899 137.826 119.75 128.103C120.216 127.685 120.589 127.173 120.844 126.602C121.1 126.03 121.232 125.411 121.232 124.785V120.61C121.232 98.5029 103.246 80.5173 81.1389 80.5173Z" fill="url(#paint0_linear_46_721)"/>
<rect width="161" height="161" rx="80.5" fill="url(#paint1_linear_46_721)" fill-opacity="0.3"/>
<path fill-rule="evenodd" clip-rule="evenodd" d="M73.017 59.054L72.2478 62.138C72.1508 62.5238 71.9279 62.8662 71.6143 63.111C71.3007 63.3557 70.9144 63.4888 70.5166 63.4891H63.267C61.1139 63.4891 59.0334 64.2675 57.4092 65.6809C55.7849 67.0942 54.7264 69.0472 54.4289 71.1796L54.4253 71.201C53.4056 79.1175 53.414 87.1326 54.4503 95.047L54.4521 95.0613C54.7495 97.1872 55.8053 99.134 57.4248 100.543C59.0443 101.952 61.1185 102.728 63.2652 102.729C72.1586 102.754 88.7175 102.754 97.6162 102.754C99.7696 102.754 101.85 101.976 103.475 100.562C105.1 99.1489 106.158 97.1958 106.456 95.0631L106.458 95.0416C107.477 87.1257 107.468 79.1111 106.431 71.1974L106.429 71.1831C106.133 69.0573 105.078 67.1104 103.459 65.701C101.84 64.2917 99.7662 63.515 97.6198 63.5141C96.3419 63.4891 95.0372 63.4891 93.9378 63.4891C93.1186 63.4891 92.4047 62.9322 92.2048 62.138L91.4356 59.054C91.2422 58.2816 90.7963 57.596 90.1687 57.1061C89.541 56.6162 88.7676 56.3501 87.9714 56.3501H76.4812C74.8428 56.3501 73.415 57.4656 73.017 59.054ZM82.2263 68.8433C74.3467 68.8433 67.9483 75.2416 67.9483 83.1213C67.9483 91.001 74.3467 97.3993 82.2263 97.3993C90.106 97.3993 96.5043 91.001 96.5043 83.1213C96.5043 75.2416 90.106 68.8433 82.2263 68.8433ZM82.2263 72.4128C88.1356 72.4128 92.9348 77.212 92.9348 83.1213C92.9348 89.0306 88.1356 93.8298 82.2263 93.8298C76.317 93.8298 71.5178 89.0306 71.5178 83.1213C71.5178 77.212 76.317 72.4128 82.2263 72.4128ZM82.2263 86.6908C81.2796 86.6908 80.3717 86.3147 79.7023 85.6453C79.0329 84.9759 78.6568 84.068 78.6568 83.1213C78.6568 82.648 78.4688 82.194 78.1341 81.8593C77.7994 81.5246 77.3454 81.3366 76.8721 81.3366C76.3987 81.3366 75.9448 81.5246 75.6101 81.8593C75.2754 82.194 75.0873 82.648 75.0873 83.1213C75.0873 87.062 78.2856 90.2603 82.2263 90.2603C82.6997 90.2603 83.1536 90.0723 83.4883 89.7376C83.823 89.4029 84.0111 88.9489 84.0111 88.4756C84.0111 88.0022 83.823 87.5482 83.4883 87.2135C83.1536 86.8788 82.6997 86.6908 82.2263 86.6908ZM64.3789 74.1976H66.1636C66.6369 74.1976 67.0909 74.0095 67.4256 73.6748C67.7603 73.3401 67.9483 72.8862 67.9483 72.4128C67.9483 71.9395 67.7603 71.4855 67.4256 71.1508C67.0909 70.8161 66.6369 70.6281 66.1636 70.6281H64.3789C63.9055 70.6281 63.4516 70.8161 63.1168 71.1508C62.7821 71.4855 62.5941 71.9395 62.5941 72.4128C62.5941 72.8862 62.7821 73.3401 63.1168 73.6748C63.4516 74.0095 63.9055 74.1976 64.3789 74.1976Z" fill="#82B3DB"/>
<defs>
<linearGradient id="paint0_linear_46_721" x1="80.3824" y1="26.0885" x2="115.181" y2="138.866" gradientUnits="userSpaceOnUse">
<stop stop-color="#2473B3"/>
<stop offset="1" stop-color="#39A7FF"/>
</linearGradient>
<linearGradient id="paint1_linear_46_721" x1="80.5" y1="0" x2="80.5" y2="161" gradientUnits="userSpaceOnUse">
<stop stop-color="#2473B3"/>
<stop offset="1" stop-color="#39A7FF"/>
</linearGradient>
</defs>
</svg>
