<svg width="19" height="25" viewBox="0 0 19 25" fill="none" xmlns="http://www.w3.org/2000/svg">
<path d="M9.90739 0.0434875C4.9479 0.0434875 0.913086 4.07831 0.913086 9.03774C0.913086 15.1926 8.96211 24.2282 9.3048 24.6098C9.62669 24.9683 10.1887 24.9677 10.51 24.6098C10.8527 24.2282 18.9017 15.1926 18.9017 9.03774C18.9016 4.07831 14.8668 0.0434875 9.90739 0.0434875ZM9.90739 13.563C7.41215 13.563 5.38218 11.533 5.38218 9.03774C5.38218 6.5425 7.4122 4.51253 9.90739 4.51253C12.4026 4.51253 14.4326 6.54255 14.4326 9.03779C14.4326 11.533 12.4026 13.563 9.90739 13.563Z" fill="white"/>
<path d="M12.9909 10.4001C13.0448 10.3605 13.0873 10.3073 13.1141 10.246C13.1409 10.1848 13.151 10.1175 13.1435 10.051C13.136 9.98455 13.1111 9.92124 13.0713 9.86748C13.0315 9.81372 12.9782 9.77141 12.9168 9.74481V9.22214L12.6112 9.352V9.74481C12.5498 9.77139 12.4965 9.81371 12.4567 9.86748C12.4169 9.92126 12.3919 9.98459 12.3844 10.0511C12.3769 10.1176 12.3871 10.1849 12.4139 10.2462C12.4407 10.3075 12.4832 10.3606 12.5371 10.4003C12.4892 10.4355 12.4501 10.4815 12.4232 10.5346C12.3963 10.5877 12.3822 10.6463 12.3821 10.7058V11.0876C12.3821 11.1282 12.3982 11.167 12.4268 11.1957C12.4555 11.2243 12.4943 11.2404 12.5348 11.2404H12.9932C13.0337 11.2404 13.0726 11.2243 13.1012 11.1957C13.1299 11.167 13.146 11.1282 13.146 11.0876V10.7057C13.1459 10.6462 13.1318 10.5875 13.1048 10.5344C13.0779 10.4813 13.0389 10.4353 12.9909 10.4001ZM12.1529 9.54604V10.6766C12.1537 10.8081 12.1203 10.9375 12.056 11.0521C11.9918 11.1668 11.8988 11.2627 11.7862 11.3306C11.202 11.6717 10.5376 11.8515 9.86112 11.8515C9.18459 11.8515 8.52022 11.6717 7.93603 11.3306C7.82346 11.2627 7.73047 11.1668 7.66618 11.0521C7.6019 10.9375 7.56853 10.8081 7.56935 10.6766V9.54604L9.44401 10.339C9.57608 10.3945 9.71788 10.423 9.86112 10.423C10.0044 10.423 10.1462 10.3945 10.2782 10.339L12.1529 9.54604Z" fill="white"/>
</svg>
