<svg width="17" height="23" viewBox="0 0 17 23" fill="none" xmlns="http://www.w3.org/2000/svg">
<path d="M8.23909 0.130447C3.74395 0.130447 0.0869141 3.83889 0.0869141 8.39716C0.0869141 14.0541 7.38231 22.3588 7.69292 22.7096C7.98467 23.0391 8.49404 23.0385 8.78526 22.7096C9.09587 22.3588 16.3913 14.0541 16.3913 8.39716C16.3912 3.83889 12.7342 0.130447 8.23909 0.130447ZM8.23909 12.5564C5.97747 12.5564 4.13757 10.6906 4.13757 8.39716C4.13757 6.10376 5.97752 4.23799 8.23909 4.23799C10.5007 4.23799 12.3406 6.1038 12.3406 8.3972C12.3406 10.6906 10.5007 12.5564 8.23909 12.5564Z" fill="white"/>
</svg>
