<svg width="24" height="24" viewBox="0 0 24 24" fill="none" xmlns="http://www.w3.org/2000/svg">
<path d="M7.99219 7.25593C7.99219 7.54908 8.07869 7.79417 8.25169 7.96237C8.43431 8.13537 8.77551 8.30357 9.2705 8.46216V6.16504C8.87163 6.19387 8.55926 6.31882 8.32859 6.52066C8.10752 6.71289 7.99219 6.95798 7.99219 7.25593ZM10.1115 10.322V12.7104C10.544 12.6623 10.8756 12.5422 11.1255 12.3307C11.3658 12.1385 11.4907 11.8742 11.4907 11.5618C11.4907 11.2591 11.3994 11.0092 11.1976 10.8314C11.0102 10.6391 10.6449 10.4757 10.1115 10.322Z" fill="black"/>
<path d="M18.2284 12.3404C18.5071 11.4706 18.6561 10.5431 18.6561 9.58195C18.6561 4.5552 14.5809 0.47998 9.55412 0.47998C4.52257 0.47998 0.452148 4.5552 0.452148 9.58195C0.452148 14.6087 4.52257 18.6839 9.55412 18.6839C10.5153 18.6839 11.4428 18.5349 12.3126 18.2562C12.3943 15.0316 15.0038 12.4221 18.2284 12.3404ZM12.2982 13.3304C11.7407 13.8158 11.0247 14.0801 10.1116 14.1281V15.0845H9.27058V14.1089C8.05475 13.9984 6.95424 13.5034 5.99791 12.6672L6.96866 11.5138C7.70874 12.1578 8.47284 12.5423 9.27058 12.6672V10.0914C8.2662 9.84626 7.53573 9.53389 7.05997 9.14944C6.60343 8.76018 6.37756 8.17389 6.37756 7.41939C6.37756 6.65048 6.63707 6.02574 7.16569 5.53556C7.70874 5.05499 8.41037 4.78588 9.27058 4.74263V4.07463H10.1116V4.75224C11.0871 4.82913 12.005 5.16072 12.87 5.75182L12.0098 6.97727C11.4283 6.55918 10.794 6.29486 10.1116 6.20355V8.69771H10.1548C11.1688 8.9428 11.9233 9.26478 12.4039 9.67326C12.87 10.0769 13.1103 10.6632 13.1103 11.4369C13.1103 12.2059 12.8412 12.8498 12.2982 13.3304Z" fill="black"/>
<path d="M18.3943 13.2974C15.5638 13.2974 13.269 15.5921 13.269 18.4226C13.269 21.2532 15.5638 23.5479 18.3943 23.5479C21.2249 23.5479 23.5196 21.2537 23.5196 18.4231C23.5196 15.5926 21.2249 13.2974 18.3943 13.2974ZM19.663 18.2304V21.9029H17.1251V18.2304H15.7247L18.3938 14.9428L21.0629 18.2304H19.663Z" fill="black"/>
</svg>
