<svg width="25" height="25" viewBox="0 0 25 25" fill="none" xmlns="http://www.w3.org/2000/svg">
<path d="M22.7114 9.40574L20.829 9.16644C20.6755 8.69362 20.485 8.23362 20.2593 7.79073L21.4217 6.29386C21.6489 6.00646 21.762 5.64538 21.7395 5.27977C21.7169 4.91415 21.5603 4.5697 21.2996 4.31238L19.7226 2.73542C19.4652 2.47313 19.12 2.31511 18.7532 2.29165C18.3864 2.26818 18.0239 2.38092 17.7351 2.60826L16.2403 3.77071C15.7971 3.54478 15.3368 3.35428 14.8636 3.201L14.6243 1.32165C14.5807 0.957559 14.4052 0.622043 14.1311 0.37852C13.8569 0.134997 13.5031 0.000339529 13.1364 0L10.8936 0C10.1357 0 9.49586 0.567709 9.40574 1.31865L9.16644 3.201C8.69307 3.35385 8.23269 3.54436 7.78973 3.77071L6.29386 2.60826C6.00629 2.38155 5.6453 2.26869 5.27981 2.29122C4.91432 2.31375 4.56993 2.4701 4.31238 2.73041L2.73542 4.30638C2.47286 4.56388 2.31467 4.90928 2.2912 5.27628C2.26773 5.64328 2.38064 6.00601 2.60826 6.29486L3.77071 7.79073C3.54454 8.23343 3.35403 8.69346 3.201 9.16644L1.32165 9.40574C0.567709 9.49586 0 10.1357 0 10.8936V13.1364C0 13.8943 0.567709 14.5341 1.31865 14.6243L3.201 14.8636C3.35619 15.3412 3.54743 15.8017 3.77071 16.2393L2.60826 17.7361C2.38113 18.0235 2.268 18.3846 2.29054 18.7502C2.31308 19.1158 2.4697 19.4603 2.73041 19.7176L4.30738 21.2946C4.56518 21.5563 4.91039 21.7139 5.27703 21.7372C5.64367 21.7604 6.00603 21.6478 6.29486 21.4207L7.79073 20.2583C8.22827 20.4826 8.68885 20.6738 9.16644 20.828L9.40574 22.7063C9.49586 23.4623 10.1357 24.03 10.8936 24.03H13.1364C13.8943 24.03 14.5341 23.4623 14.6243 22.7114L14.8636 20.829C15.3364 20.6755 15.7964 20.485 16.2393 20.2593L17.7361 21.4217C18.3419 21.8923 19.197 21.8373 19.7176 21.2996L21.2946 19.7226C21.5569 19.4652 21.7149 19.12 21.7384 18.7532C21.7618 18.3864 21.6491 18.0239 21.4217 17.7351L20.2593 16.2393C20.4836 15.8017 20.6748 15.3412 20.829 14.8636L22.7073 14.6243C23.0714 14.5807 23.407 14.4052 23.6505 14.1311C23.894 13.8569 24.0287 13.5031 24.029 13.1364V10.8936C24.0292 10.5274 23.8953 10.1738 23.6525 9.89966C23.4097 9.62551 23.0749 9.4498 22.7114 9.40574ZM12.015 17.0212C9.25455 17.0212 7.00875 14.7754 7.00875 12.015C7.00875 9.25455 9.25455 7.00875 12.015 7.00875C14.7754 7.00875 17.0212 9.25455 17.0212 12.015C17.0212 14.7754 14.7754 17.0212 12.015 17.0212Z" fill="black"/>
</svg>
