<svg width="17" height="21" viewBox="0 0 17 21" fill="none" xmlns="http://www.w3.org/2000/svg">
<path d="M12.5519 4.36288C12.5519 1.95719 10.5581 0 8.10742 0C5.65675 0 3.66298 1.95719 3.66298 4.36288C3.66298 6.76857 5.65675 8.72576 8.10742 8.72576C10.5581 8.72576 12.5519 6.76857 12.5519 4.36288ZM8.10742 8.72576C3.69622 8.72576 0.107422 12.2487 0.107422 16.5789V17.3967C0.107422 17.6448 0.214918 17.8811 0.403125 18.0466C2.56834 19.9511 5.30446 21 8.10742 21C10.9104 21 13.6466 19.9511 15.8117 18.0466C15.9048 17.9647 15.9792 17.8646 16.0301 17.7526C16.0811 17.6406 16.1074 17.5194 16.1074 17.3967V16.5789C16.1074 12.2487 12.5186 8.72576 8.10742 8.72576Z" fill="#263A95"/>
</svg>
