<svg width="10" height="10" viewBox="0 0 10 10" fill="none" xmlns="http://www.w3.org/2000/svg">
<path d="M9.89842 3.9927C9.83249 3.67083 9.73485 3.35629 9.60693 3.05367C9.48103 2.7563 9.32662 2.47182 9.14588 2.20422C8.96644 1.93877 8.76206 1.69106 8.53553 1.46447C8.30893 1.23795 8.06122 1.03357 7.79578 0.854121C7.52818 0.673368 7.2437 0.518962 6.94633 0.393066C6.64371 0.265151 6.32918 0.167513 6.00732 0.101582C5.67793 0.0341797 5.33902 0 5 0C4.66098 0 4.32207 0.0341797 3.99268 0.101582C3.67081 0.167513 3.35627 0.265151 3.05365 0.393066C2.75628 0.51897 2.4718 0.673376 2.2042 0.854121C1.93876 1.03357 1.69106 1.23795 1.46447 1.46447C1.23795 1.69107 1.03357 1.93878 0.854121 2.20422C0.673368 2.47182 0.518962 2.7563 0.393066 3.05367C0.265148 3.35629 0.16751 3.67083 0.101582 3.9927C0.0341797 4.32207 0 4.66098 0 5C0 5.33902 0.0341797 5.67793 0.101582 6.00732C0.167513 6.32918 0.265151 6.64371 0.393066 6.94633C0.51897 7.2437 0.673376 7.52818 0.854121 7.79578C1.03356 8.06123 1.23794 8.30893 1.46447 8.53553C1.69107 8.76205 1.93878 8.96643 2.20422 9.14588C2.47182 9.32663 2.7563 9.48104 3.05367 9.60693C3.35629 9.73485 3.67083 9.83249 3.9927 9.89842C4.32207 9.96582 4.66098 10 5 10C5.33902 10 5.67793 9.96582 6.00732 9.89842C6.32918 9.83249 6.64372 9.73485 6.94633 9.60693C7.2437 9.48103 7.52818 9.32662 7.79578 9.14588C8.06123 8.96644 8.30894 8.76206 8.53553 8.53553C8.76205 8.30893 8.96643 8.06122 9.14588 7.79578C9.32663 7.52818 9.48104 7.2437 9.60693 6.94633C9.73485 6.64371 9.83249 6.32918 9.89842 6.00732C9.96582 5.67793 10 5.33902 10 5C10 4.66098 9.96582 4.32207 9.89842 3.9927ZM5 9.32381C2.61584 9.32381 0.676191 7.38416 0.676191 5C0.676191 2.61584 2.61584 0.676191 5 0.676191C7.38416 0.676191 9.32381 2.61584 9.32381 5C9.32381 7.38416 7.38416 9.32381 5 9.32381Z" fill="#4B4B4B"/>
<path d="M6.42661 3.80646L5.31437 4.6948L5.21066 1.70577C5.20419 1.51915 5.04769 1.37315 4.86105 1.3796C4.67443 1.38608 4.52841 1.54261 4.53487 1.72921L4.66191 5.39044C4.66495 5.47802 4.70188 5.56099 4.7649 5.62188C4.82793 5.68276 4.91213 5.7168 4.99976 5.71683C5.07509 5.71683 5.14976 5.69165 5.21079 5.6429L6.84861 4.3348C6.9945 4.21827 7.01831 4.00552 6.90179 3.85962C6.78527 3.71374 6.57251 3.68993 6.42661 3.80646Z" fill="#4B4B4B"/>
</svg>
