<svg width="22" height="21" viewBox="0 0 22 21" fill="none" xmlns="http://www.w3.org/2000/svg">
<path d="M20.7779 15.3654L17.9031 12.4906C16.8764 11.4639 15.131 11.8746 14.7203 13.2093C14.4123 14.1334 13.3856 14.6467 12.4616 14.4413C10.4082 13.928 7.63604 11.2585 7.12268 9.10245C6.81467 8.17837 7.4307 7.15166 8.35474 6.84369C9.68946 6.433 10.1001 4.68759 9.07343 3.66088L6.19864 0.786093C5.37728 0.067396 4.14522 0.067396 3.42653 0.786093L1.47578 2.73684C-0.474974 4.79026 1.68112 10.2318 6.50666 15.0574C11.3322 19.8829 16.7738 22.1417 18.8272 20.0883L20.7779 18.1375C21.4967 17.3161 21.4967 16.0841 20.7779 15.3654Z" fill="#2473B3"/>
</svg>
