<svg width="17" height="23" viewBox="0 0 17 23" fill="none" xmlns="http://www.w3.org/2000/svg">
<path d="M8.27476 0C3.71203 0 0 3.71203 0 8.27471C0 13.9371 7.4051 22.2499 7.72038 22.601C8.01651 22.9309 8.53354 22.9303 8.82914 22.601C9.14442 22.2499 16.5495 13.9371 16.5495 8.27471C16.5494 3.71203 12.8374 0 8.27476 0ZM8.27476 12.438C5.97914 12.438 4.11156 10.5703 4.11156 8.27471C4.11156 5.97909 5.97918 4.11152 8.27476 4.11152C10.5703 4.11152 12.4379 5.97914 12.4379 8.27476C12.4379 10.5704 10.5703 12.438 8.27476 12.438Z" fill="#2473B3"/>
<path d="M11.1119 9.52788C11.1614 9.49142 11.2005 9.44254 11.2252 9.38615C11.2498 9.32976 11.2592 9.26787 11.2522 9.20672C11.2453 9.14557 11.2224 9.08733 11.1858 9.03787C11.1492 8.98841 11.1002 8.94948 11.0437 8.92501V8.44415L10.7626 8.56363V8.92501C10.7061 8.94947 10.657 8.9884 10.6204 9.03787C10.5838 9.08734 10.5608 9.14561 10.5539 9.20678C10.547 9.26795 10.5563 9.32987 10.581 9.38627C10.6057 9.44268 10.6448 9.49157 10.6944 9.52802C10.6503 9.56044 10.6144 9.60277 10.5896 9.6516C10.5648 9.70042 10.5518 9.75439 10.5517 9.80915V10.1604C10.5517 10.1977 10.5665 10.2334 10.5929 10.2598C10.6193 10.2862 10.655 10.301 10.6923 10.301H11.114C11.1513 10.301 11.187 10.2862 11.2134 10.2598C11.2397 10.2334 11.2545 10.1977 11.2545 10.1604V9.80901C11.2544 9.75425 11.2415 9.70028 11.2167 9.65146C11.1919 9.60263 11.156 9.5603 11.1119 9.52788ZM10.3409 8.74214V9.7823C10.3416 9.90322 10.3109 10.0223 10.2518 10.1277C10.1927 10.2332 10.1071 10.3215 10.0035 10.3839C9.46608 10.6978 8.85486 10.8632 8.23246 10.8632C7.61006 10.8632 6.99884 10.6978 6.46138 10.3839C6.35782 10.3215 6.27227 10.2332 6.21312 10.1277C6.15398 10.0223 6.12328 9.90322 6.12404 9.7823V8.74214L7.84873 9.47166C7.97023 9.52269 8.10068 9.54897 8.23246 9.54897C8.36424 9.54897 8.4947 9.52269 8.61619 9.47166L10.3409 8.74214Z" fill="#2473B3"/>
<path d="M11.3302 7.2419L8.50664 6.04713C8.41987 6.01062 8.32669 5.99182 8.23255 5.99182C8.13841 5.99182 8.04523 6.01062 7.95845 6.04713L5.13485 7.2419C5.05853 7.27418 4.99342 7.32823 4.94764 7.3973C4.90186 7.46638 4.87744 7.5474 4.87744 7.63027C4.87744 7.71314 4.90186 7.79417 4.94764 7.86324C4.99342 7.93231 5.05853 7.98636 5.13485 8.01864L7.95845 9.21342C8.04522 9.24996 8.13841 9.26878 8.23255 9.26878C8.32669 9.26878 8.41988 9.24996 8.50664 9.21342L11.3302 8.01864C11.4066 7.98636 11.4717 7.93231 11.5175 7.86324C11.5632 7.79417 11.5877 7.71314 11.5877 7.63027C11.5877 7.5474 11.5632 7.46638 11.5175 7.3973C11.4717 7.32823 11.4066 7.27418 11.3302 7.2419Z" fill="#2473B3"/>
</svg>
