<svg width="22" height="22" viewBox="0 0 22 22" fill="none" xmlns="http://www.w3.org/2000/svg">
<g clip-path="url(#clip0_2_46885)">
<path d="M20.7461 15.6663L17.8824 12.8026C16.8596 11.7798 15.1209 12.189 14.7118 13.5185C14.405 14.439 13.3823 14.9504 12.4618 14.7458C10.4163 14.2345 7.65483 11.5753 7.14345 9.4275C6.83662 8.50698 7.45027 7.48422 8.37076 7.17744C9.70034 6.76833 10.1094 5.02965 9.08669 4.00689L6.22297 1.14318C5.40476 0.427249 4.17746 0.427249 3.46153 1.14318L1.51829 3.08641C-0.424943 5.13193 1.72284 10.5525 6.5298 15.3595C11.3367 20.1664 16.7574 22.4165 18.8029 20.371L20.7461 18.4277C21.4621 17.6095 21.4621 16.3822 20.7461 15.6663Z" fill="#2473B3"/>
</g>
<defs>
<clipPath id="clip0_2_46885">
<rect width="20.5206" height="20.5206" fill="white" transform="translate(0.784119 0.606445)"/>
</clipPath>
</defs>
</svg>
