<svg width="17" height="23" viewBox="0 0 17 23" fill="none" xmlns="http://www.w3.org/2000/svg">
<path d="M8.24288 0C3.69773 0 0 3.69773 0 8.24284C0 13.8835 7.37657 22.1642 7.69064 22.514C7.98563 22.8425 8.50067 22.842 8.79513 22.514C9.10919 22.1642 16.4858 13.8835 16.4858 8.24284C16.4857 3.69773 12.788 0 8.24288 0ZM8.24288 12.39C5.95611 12.39 4.09573 10.5296 4.09573 8.24284C4.09573 5.95606 5.95615 4.09568 8.24288 4.09568C10.5296 4.09568 12.39 5.95611 12.39 8.24288C12.39 10.5297 10.5296 12.39 8.24288 12.39Z" fill="#2473B3"/>
<path d="M11.0692 9.49124C11.1186 9.45492 11.1575 9.40622 11.1821 9.35005C11.2066 9.29388 11.2159 9.23223 11.209 9.17131C11.2021 9.1104 11.1793 9.05238 11.1428 9.00311C11.1063 8.95384 11.0575 8.91506 11.0013 8.89069V8.41168L10.7212 8.5307V8.89069C10.665 8.91505 10.6161 8.95383 10.5796 9.00311C10.5431 9.0524 10.5203 9.11044 10.5134 9.17137C10.5065 9.23231 10.5158 9.29399 10.5404 9.35017C10.5649 9.40636 10.6039 9.45507 10.6533 9.49138C10.6094 9.52367 10.5736 9.56583 10.5489 9.61448C10.5242 9.66312 10.5113 9.71687 10.5112 9.77142V10.1213C10.5112 10.1585 10.526 10.1941 10.5522 10.2203C10.5785 10.2466 10.6141 10.2613 10.6512 10.2613H11.0713C11.1084 10.2613 11.144 10.2466 11.1703 10.2203C11.1966 10.1941 11.2113 10.1585 11.2113 10.1213V9.77128C11.2112 9.71673 11.1983 9.66298 11.1736 9.61434C11.1489 9.56569 11.1131 9.52353 11.0692 9.49124ZM10.3012 8.70852V9.74467C10.3019 9.86513 10.2713 9.98371 10.2124 10.0888C10.1535 10.1938 10.0683 10.2818 9.96513 10.344C9.42974 10.6566 8.82088 10.8214 8.20087 10.8214C7.58087 10.8214 6.972 10.6566 6.43662 10.344C6.33345 10.2818 6.24823 10.1938 6.18931 10.0888C6.1304 9.98371 6.09981 9.86513 6.10057 9.74467V8.70852L7.81862 9.43523C7.93965 9.48606 8.0696 9.51224 8.20087 9.51224C8.33214 9.51224 8.4621 9.48606 8.58313 9.43523L10.3012 8.70852Z" fill="#2473B3"/>
<path d="M11.2863 7.21401L8.47362 6.02384C8.38719 5.98748 8.29436 5.96875 8.20058 5.96875C8.10681 5.96875 8.01398 5.98748 7.92754 6.02384L5.11482 7.21401C5.03879 7.24617 4.97393 7.30001 4.92832 7.36882C4.88272 7.43762 4.8584 7.51834 4.8584 7.60089C4.8584 7.68343 4.88272 7.76415 4.92832 7.83296C4.97393 7.90176 5.03879 7.95561 5.11482 7.98776L7.92754 9.17793C8.01397 9.21433 8.1068 9.23308 8.20058 9.23308C8.29436 9.23308 8.3872 9.21433 8.47362 9.17793L11.2863 7.98776C11.3624 7.95561 11.4272 7.90176 11.4728 7.83296C11.5184 7.76415 11.5428 7.68343 11.5428 7.60089C11.5428 7.51834 11.5184 7.43762 11.4728 7.36882C11.4272 7.30001 11.3624 7.24617 11.2863 7.21401Z" fill="#2473B3"/>
</svg>
