<svg width="28" height="20" viewBox="0 0 28 20" fill="none" xmlns="http://www.w3.org/2000/svg">
<path d="M18.4558 10.6895L16.1853 12.9678C15.2645 13.8918 13.6444 13.9117 12.7038 12.9678L10.4331 10.6895L2.27783 18.8713C2.5814 19.0116 2.9161 19.0954 3.27193 19.0954H25.6171C25.9729 19.0954 26.3075 19.0117 26.611 18.8713L18.4558 10.6895Z" fill="#2473B3"/>
<path d="M25.6171 0.0345306H3.27194C2.91611 0.0345306 2.58141 0.118299 2.27795 0.258671L10.9924 9.00204C10.993 9.00262 10.9937 9.00272 10.9943 9.00331C10.9946 9.00369 10.9949 9.00417 10.9949 9.00468L13.8285 11.8476C14.1295 12.1486 14.7597 12.1486 15.0607 11.8476L17.8936 9.00516C17.8936 9.00516 17.8943 9.00389 17.8949 9.00331C17.8949 9.00331 17.8962 9.00262 17.8967 9.00204L26.611 0.258618C26.3075 0.118193 25.9729 0.0345306 25.6171 0.0345306ZM1.14258 1.36952C0.98553 1.68712 0.88916 2.03966 0.88916 2.41731V16.714C0.88916 17.0916 0.985424 17.4442 1.14253 17.7618L9.31191 9.56591L1.14258 1.36952ZM27.7465 1.36942L19.5772 9.56591L27.7465 17.7619C27.9035 17.4443 27.9999 17.0917 27.9999 16.714V2.41731C27.9999 2.03956 27.9035 1.68701 27.7465 1.36942Z" fill="#2473B3"/>
</svg>
