<svg width="22" height="16" viewBox="0 0 22 16" fill="none" xmlns="http://www.w3.org/2000/svg">
<path d="M14.1245 8.95264L12.3637 10.7194C11.6497 11.436 10.3933 11.4514 9.66381 10.7194L7.90291 8.95264L1.57857 15.2975C1.81398 15.4064 2.07354 15.4713 2.34949 15.4713H19.678C19.954 15.4713 20.2134 15.4064 20.4488 15.2975L14.1245 8.95264Z" fill="#2473B3"/>
<path d="M19.678 0.688965H2.34942C2.07347 0.688965 1.81392 0.753926 1.57858 0.862784L8.33659 7.64321C8.33704 7.64366 8.33757 7.64374 8.33803 7.6442C8.33831 7.64449 8.33849 7.64486 8.33856 7.64526L10.536 9.84993C10.7694 10.0833 11.2581 10.0833 11.4915 9.84993L13.6884 7.64563C13.6884 7.64563 13.689 7.64465 13.6894 7.6442C13.6894 7.6442 13.6904 7.64366 13.6909 7.64321L20.4487 0.862743C20.2134 0.753844 19.9539 0.688965 19.678 0.688965ZM0.698114 1.72424C0.576321 1.97054 0.501587 2.24393 0.501587 2.53679V13.6238C0.501587 13.9166 0.576239 14.19 0.698073 14.4363L7.03338 8.08049L0.698114 1.72424ZM21.3293 1.72416L14.994 8.08049L21.3293 14.4364C21.451 14.1901 21.5258 13.9167 21.5258 13.6238V2.53679C21.5258 2.24385 21.451 1.97046 21.3293 1.72416Z" fill="#2473B3"/>
</svg>
