<svg width="22" height="16" viewBox="0 0 22 16" fill="none" xmlns="http://www.w3.org/2000/svg">
<path d="M19.1137 0.206055H2.91028C1.58157 0.206055 0.501587 1.28604 0.501587 2.61475V13.563C0.501587 14.8917 1.58157 15.9717 2.91028 15.9717H19.1137C20.4424 15.9717 21.5224 14.8917 21.5224 13.563V2.61475C21.5224 1.28604 20.4424 0.206055 19.1137 0.206055ZM7.07059 3.70947C8.27757 3.70947 9.26021 4.69228 9.26021 5.89925C9.26021 7.10606 8.27757 8.08886 7.07059 8.08886C5.86362 8.08886 4.88098 7.10606 4.88098 5.89925C4.88098 4.69228 5.86362 3.70947 7.07059 3.70947ZM11.012 11.8114C11.012 12.174 10.7177 12.4683 10.3551 12.4683H3.78609C3.42348 12.4683 3.12919 12.174 3.12919 11.8114V11.3734C3.12919 10.0447 4.20918 8.96468 5.53788 8.96468H8.60331C9.93201 8.96468 11.012 10.0447 11.012 11.3734V11.8114ZM18.2379 12.4683H13.4207C13.0581 12.4683 12.7638 12.174 12.7638 11.8114C12.7638 11.4487 13.0581 11.1545 13.4207 11.1545H18.2379C18.6005 11.1545 18.8948 11.4487 18.8948 11.8114C18.8948 12.174 18.6005 12.4683 18.2379 12.4683ZM18.2379 8.96468H13.4207C13.0581 8.96468 12.7638 8.67039 12.7638 8.30778C12.7638 7.94517 13.0581 7.65088 13.4207 7.65088H18.2379C18.6005 7.65088 18.8948 7.94517 18.8948 8.30778C18.8948 8.67039 18.6005 8.96468 18.2379 8.96468ZM18.2379 5.46126H13.4207C13.0581 5.46126 12.7638 5.16697 12.7638 4.80436C12.7638 4.44175 13.0581 4.14746 13.4207 4.14746H18.2379C18.6005 4.14746 18.8948 4.44175 18.8948 4.80436C18.8948 5.16697 18.6005 5.46126 18.2379 5.46126Z" fill="#2473B3"/>
</svg>
