<svg width="17" height="23" viewBox="0 0 17 23" fill="none" xmlns="http://www.w3.org/2000/svg">
<path d="M8.24288 0C3.69773 0 0 3.69773 0 8.24284C0 13.8835 7.37657 22.1642 7.69064 22.514C7.98563 22.8425 8.50067 22.842 8.79513 22.514C9.10919 22.1642 16.4858 13.8835 16.4858 8.24284C16.4857 3.69773 12.788 0 8.24288 0ZM8.24288 12.39C5.95611 12.39 4.09573 10.5296 4.09573 8.24284C4.09573 5.95606 5.95615 4.09568 8.24288 4.09568C10.5296 4.09568 12.39 5.95611 12.39 8.24288C12.39 10.5297 10.5296 12.39 8.24288 12.39Z" fill="#2473B3"/>
</svg>
