<svg width="14" height="14" viewBox="0 0 14 14" fill="none" xmlns="http://www.w3.org/2000/svg">
<path d="M13.8578 5.58977C13.7655 5.13917 13.6288 4.69881 13.4497 4.27514C13.2734 3.85882 13.0573 3.46055 12.8042 3.08591C12.553 2.71428 12.2669 2.36749 11.9497 2.05026C11.6325 1.73313 11.2857 1.447 10.9141 1.19577C10.5395 0.942716 10.1412 0.726547 9.72486 0.550293C9.3012 0.371212 8.86085 0.234519 8.41025 0.142215C7.9491 0.0478516 7.47463 0 7 0C6.52537 0 6.0509 0.0478516 5.58975 0.142215C5.13914 0.234519 4.69878 0.371211 4.27511 0.550293C3.85879 0.726558 3.46052 0.942726 3.08588 1.19577C2.71427 1.447 2.36749 1.73313 2.05026 2.05026C1.73313 2.3675 1.447 2.71429 1.19577 3.08591C0.942716 3.46055 0.726547 3.85882 0.550293 4.27514C0.371208 4.69881 0.234515 5.13917 0.142215 5.58977C0.0478516 6.0509 0 6.52537 0 7C0 7.47463 0.0478516 7.9491 0.142215 8.41025C0.234519 8.86085 0.371212 9.3012 0.550293 9.72486C0.726558 10.1412 0.942726 10.5394 1.19577 10.9141C1.44699 11.2857 1.73312 11.6325 2.05026 11.9497C2.3675 12.2669 2.71429 12.553 3.08591 12.8042C3.46055 13.0573 3.85882 13.2735 4.27514 13.4497C4.69881 13.6288 5.13917 13.7655 5.58977 13.8578C6.0509 13.9521 6.52537 14 7 14C7.47463 14 7.9491 13.9521 8.41025 13.8578C8.86085 13.7655 9.3012 13.6288 9.72486 13.4497C10.1412 13.2734 10.5394 13.0573 10.9141 12.8042C11.2857 12.553 11.6325 12.2669 11.9497 11.9497C12.2669 11.6325 12.553 11.2857 12.8042 10.9141C13.0573 10.5395 13.2735 10.1412 13.4497 9.72486C13.6288 9.3012 13.7655 8.86085 13.8578 8.41025C13.9521 7.9491 14 7.47463 14 7C14 6.52537 13.9521 6.0509 13.8578 5.58977ZM7 13.0533C3.66218 13.0533 0.946668 10.3378 0.946668 7C0.946668 3.66218 3.66218 0.946668 7 0.946668C10.3378 0.946668 13.0533 3.66218 13.0533 7C13.0533 10.3378 10.3378 13.0533 7 13.0533Z" fill="#4B4B4B"/>
<path d="M8.99687 5.32904L7.43972 6.57271L7.29453 2.38808C7.28548 2.12681 7.06637 1.92242 6.80507 1.93144C6.54381 1.94052 6.33938 2.15965 6.34843 2.42089L6.52628 7.54662C6.53054 7.66922 6.58224 7.78539 6.67047 7.87063C6.75871 7.95587 6.87659 8.00352 6.99927 8.00356C7.10473 8.00356 7.20927 7.96831 7.29472 7.90006L9.58766 6.06871C9.79191 5.90558 9.82525 5.60773 9.66211 5.40347C9.49898 5.19924 9.20113 5.1659 8.99687 5.32904Z" fill="#4B4B4B"/>
</svg>
